<?xml version="1.0" encoding="UTF-8"?>
<svg version="1.1" xmlns="http://www.w3.org/2000/svg" width="512" height="512">
<path d="M0 0 C1.45108658 0.00273422 1.45108658 0.00273422 2.93148804 0.00552368 C17.26440977 0.05095174 31.21023917 0.55983928 45.3125 3.3125 C46.65803955 3.55395752 46.65803955 3.55395752 48.03076172 3.80029297 C107.84088904 14.62287989 165.35495829 48.68064457 202.3125 97.3125 C202.72918945 97.85277832 203.14587891 98.39305664 203.57519531 98.94970703 C211.2584873 108.9447116 218.00092968 119.40459036 224.3125 130.3125 C224.70679199 130.98974121 225.10108398 131.66698242 225.50732422 132.36474609 C238.68961173 155.2833756 247.29510918 180.85822563 252.625 206.6875 C252.77243652 207.39817627 252.91987305 208.10885254 253.07177734 208.84106445 C256.05713787 224.48358366 256.6873098 240.11919606 256.625 256 C256.62226578 257.45108658 256.62226578 257.45108658 256.61947632 258.93148804 C256.57404826 273.26440977 256.06516072 287.21023917 253.3125 301.3125 C253.15152832 302.20952637 252.99055664 303.10655273 252.82470703 304.03076172 C249.86557999 320.38413143 246.13298664 339.44680084 237.79597473 353.95082092 C231.16134041 366.06895308 232.44372533 379.75828981 232.50220728 393.18472624 C232.51167662 396.8189369 232.48705528 400.45292574 232.46627808 404.08706665 C232.43212275 410.94676201 232.42797256 417.80612315 232.43500316 424.66588652 C232.44152585 432.484784 232.41398883 440.30345048 232.38380075 448.12227893 C232.32253274 464.18572771 232.30335463 480.24893352 232.3125 496.3125 C232.86711914 496.28631592 233.42173828 496.26013184 233.99316406 496.2331543 C236.51598569 496.12895997 239.03835489 496.06411109 241.5625 496 C242.43519531 495.95810547 243.30789063 495.91621094 244.20703125 495.87304688 C250.68989784 495.74932805 250.68989784 495.74932805 253.890625 498.64453125 C255.63440014 501.91650494 255.92220433 503.65427403 255.3125 507.3125 C253.80228472 509.96084923 253.80228472 509.96084923 251.3125 512.3125 C248.34351512 512.81213995 245.94533866 512.98368353 242.97594452 512.93891239 C242.12327556 512.94588 241.27060661 512.95284761 240.3920992 512.96002635 C237.51514052 512.97736622 234.63951128 512.95885504 231.76257324 512.94068909 C229.68719096 512.94573075 227.61181302 512.95295662 225.53644514 512.96218723 C219.81806819 512.98119044 214.1001164 512.96883025 208.38174987 512.9514643 C202.22079017 512.93813631 196.05989457 512.95351093 189.89894104 512.96528625 C178.52211036 512.98263612 167.14545483 512.97724142 155.76863874 512.9602995 C145.25947827 512.94474619 134.75036713 512.93887616 124.24119568 512.9426403 C123.19648022 512.94299551 123.19648022 512.94299551 122.1306594 512.94335788 C119.3035951 512.94433277 116.47653083 512.94535358 113.64946657 512.94644299 C87.11700697 512.95653125 60.58463404 512.93824659 34.05219483 512.90672263 C10.46787135 512.87886093 -13.11634905 512.87389783 -36.70068359 512.88891602 C-42.73947392 512.8927383 -48.77826426 512.89653305 -54.81705475 512.9000864 C-55.5604478 512.90052422 -56.30384085 512.90096203 -57.06976097 512.90141311 C-76.76326098 512.91264704 -96.45675338 512.90530835 -116.15025091 512.89220566 C-118.2687204 512.89081705 -120.3871899 512.88943634 -122.5056594 512.88806724 C-123.91105938 512.88715785 -125.31645935 512.88623518 -126.72185931 512.88529913 C-137.22568035 512.8784966 -147.72947164 512.88116939 -158.23329163 512.88824654 C-170.17388583 512.89620375 -182.11437232 512.88928388 -194.05495226 512.8640715 C-200.15158326 512.85153997 -206.2480412 512.84547411 -212.34467888 512.85661316 C-217.91956545 512.86660688 -223.4941059 512.85830023 -229.06895012 512.83503198 C-231.09176271 512.82984527 -233.11460598 512.83148338 -235.13740546 512.84042663 C-237.8756727 512.85153118 -240.61275097 512.83828983 -243.35094452 512.81865788 C-244.54394599 512.8322761 -244.54394599 512.8322761 -245.7610485 512.84616944 C-249.32985472 512.79588953 -251.3016062 512.60824292 -254.17533159 510.40586513 C-255.81393828 508.1374656 -256.23071516 507.07827047 -256.1875 504.3125 C-256.1978125 503.6525 -256.208125 502.9925 -256.21875 502.3125 C-255.39127239 499.19729018 -254.31959566 498.2210158 -251.6875 496.3125 C-248.26012805 495.81112792 -244.89191125 495.93670911 -241.4375 496.0625 C-240.50164062 496.08054687 -239.56578125 496.09859375 -238.6015625 496.1171875 C-236.29582985 496.16424327 -233.99219055 496.22996287 -231.6875 496.3125 C-231.58373613 479.66374992 -231.53872841 463.01598052 -231.56052971 446.3669672 C-231.56933907 438.63354303 -231.56011045 430.90098492 -231.50585938 423.16772461 C-231.45852998 416.41419563 -231.44764766 409.66167269 -231.4775821 402.9080295 C-231.49218662 399.34343407 -231.49055465 395.78079358 -231.44500351 392.21641731 C-231.22676006 373.99585566 -233.65433684 359.70330572 -241.45598221 343.14788628 C-246.54655694 331.42759622 -249.42380427 318.42204584 -252 305.9375 C-252.14743652 305.22682373 -252.29487305 304.51614746 -252.44677734 303.78393555 C-255.43213787 288.14141634 -256.0623098 272.50580394 -256 256.625 C-255.99817719 255.65760895 -255.99635437 254.6902179 -255.99447632 253.69351196 C-255.94904826 239.36059023 -255.44016072 225.41476083 -252.6875 211.3125 C-252.44604248 209.96696045 -252.44604248 209.96696045 -252.19970703 208.59423828 C-241.37712011 148.78411096 -207.31935543 91.27004171 -158.6875 54.3125 C-158.14722168 53.89581055 -157.60694336 53.47912109 -157.05029297 53.04980469 C-147.0552884 45.3665127 -136.59540964 38.62407032 -125.6875 32.3125 C-125.01025879 31.91820801 -124.33301758 31.52391602 -123.63525391 31.11767578 C-100.7166244 17.93538827 -75.14177437 9.32989082 -49.3125 4 C-48.60182373 3.85256348 -47.89114746 3.70512695 -47.15893555 3.55322266 C-31.51641634 0.56786213 -15.88080394 -0.0623098 0 0 Z " fill="#1A3751" transform="translate(255.6875,-0.3125)"/>
<path d="M0 0 C0 140.91 0 281.82 0 427 C-47.52 427 -95.04 427 -144 427 C-144.25095062 360.38605513 -144.25095062 360.38605513 -144.35546875 331.78710938 C-144.37936574 325.24959299 -144.40328617 318.7120767 -144.42724609 312.17456055 C-144.43024503 311.356027 -144.43324396 310.53749346 -144.43633378 309.69415587 C-144.47796037 298.34060046 -144.52045941 286.98704862 -144.56369197 275.63349922 C-144.63843567 256.00437202 -144.7113832 236.37523896 -144.78125 216.74609375 C-144.78399162 215.97693034 -144.78673324 215.20776693 -144.78955793 214.41529554 C-144.99406321 156.94336321 -145.06626428 99.47233192 -145 42 C-141.958836 41.03356702 -138.91698018 40.06932931 -135.875 39.10546875 C-134.59109375 38.69742004 -134.59109375 38.69742004 -133.28125 38.28112793 C-127.22502179 36.3638076 -121.14771114 34.60121916 -115 33 C-108.10731357 31.16389325 -101.28617779 29.19721102 -94.5 27 C-86.7903084 24.50377607 -79.01987913 22.34049623 -71.19140625 20.25 C-65.24112147 18.64767928 -59.36223937 16.89806064 -53.5 15 C-45.80429002 12.50830301 -38.04896939 10.34455039 -30.2331543 8.26318359 C-23.04941681 6.3326537 -15.96324986 4.16144206 -8.90039062 1.828125 C-5.82213097 0.82275837 -3.2612673 0 0 0 Z " fill="#2CA1DB" transform="translate(248,69)"/>
<path d="M0 0 C1.45108658 0.00273422 1.45108658 0.00273422 2.93148804 0.00552368 C17.26440977 0.05095174 31.21023917 0.55983928 45.3125 3.3125 C46.65803955 3.55395752 46.65803955 3.55395752 48.03076172 3.80029297 C107.84088904 14.62287989 165.35495829 48.68064457 202.3125 97.3125 C202.72918945 97.85277832 203.14587891 98.39305664 203.57519531 98.94970703 C211.2584873 108.9447116 218.00092968 119.40459036 224.3125 130.3125 C224.70679199 130.98974121 225.10108398 131.66698242 225.50732422 132.36474609 C238.68961173 155.2833756 247.29510918 180.85822563 252.625 206.6875 C252.77243652 207.39817627 252.91987305 208.10885254 253.07177734 208.84106445 C256.05713787 224.48358366 256.6873098 240.11919606 256.625 256 C256.62226578 257.45108658 256.62226578 257.45108658 256.61947632 258.93148804 C256.57404826 273.26440977 256.06516072 287.21023917 253.3125 301.3125 C253.15152832 302.20952637 252.99055664 303.10655273 252.82470703 304.03076172 C249.0131105 325.09523323 242.44630916 345.93449705 233.3125 365.3125 C232.9825 365.3125 232.6525 365.3125 232.3125 365.3125 C232.31011165 364.67620257 232.30772329 364.03990515 232.30526257 363.38432598 C232.24616025 347.91115169 232.17064108 332.4381582 232.07678509 316.96515942 C232.03179431 309.48256525 231.99238734 302.00001903 231.96606445 294.51733398 C231.94311081 287.99641621 231.90974259 281.47564975 231.86379844 274.95485193 C231.83983035 271.50120653 231.82112522 268.04771132 231.81488609 264.5939846 C231.80773098 260.74111836 231.7773273 256.88862911 231.74487305 253.03588867 C231.74702568 251.31283005 231.74702568 251.31283005 231.7492218 249.55496216 C231.73041458 247.98374352 231.73041458 247.98374352 231.71122742 246.38078308 C231.70661845 245.46912982 231.70200949 244.55747656 231.69726086 243.61819744 C231.2346921 240.84623252 230.50247999 240.01554214 228.3125 238.3125 C226.54607903 237.35555666 224.74011771 236.47037203 222.9140625 235.6328125 C221.80788574 235.12202148 220.70170898 234.61123047 219.56201172 234.08496094 C218.36592285 233.54129883 217.16983398 232.99763672 215.9375 232.4375 C214.69657325 231.86795748 213.45585366 231.29796344 212.21533203 230.72753906 C199.43739563 224.86514594 186.60159041 219.12837097 173.75732422 213.41308594 C172.26302605 212.74039809 170.77822466 212.04536233 169.3125 211.3125 C169.31107498 210.66992249 169.30964996 210.02734497 169.30818176 209.36529541 C169.28850638 202.68157174 169.23427894 195.998764 169.15991211 189.31542969 C169.13670461 186.82070485 169.12232999 184.32588165 169.11694336 181.83105469 C169.10767443 178.24611923 169.06672532 174.66273683 169.01953125 171.078125 C169.02543022 169.40293793 169.02543022 169.40293793 169.03144836 167.69390869 C169.05343473 161.65158894 169.05343473 161.65158894 166.02563477 156.67480469 C163.74049104 155.52740057 161.63710234 154.49216408 159.1953125 153.75 C158.43154297 153.5128125 157.66777344 153.275625 156.88085938 153.03125 C156.07455078 152.7940625 155.26824219 152.556875 154.4375 152.3125 C153.59251953 152.0546875 152.74753906 151.796875 151.87695312 151.53125 C145.67494765 149.65894646 139.43155968 147.99037427 133.16015625 146.3671875 C128.81403418 145.1758647 124.5375736 143.8219554 120.25 142.4375 C113.31712862 140.20181835 106.3503391 138.19106262 99.3125 136.3125 C91.46922255 134.21894719 83.7284062 131.91611222 76.00390625 129.421875 C70.11345633 127.53135898 64.17728849 125.92408323 58.1875 124.375 C52.85722471 122.95359326 47.6245288 121.21764377 42.37475586 119.52783203 C36.32693441 117.59542104 30.25810229 115.90913466 24.09765625 114.3671875 C20.71203394 113.42382525 17.40691813 112.36439056 14.07592773 111.24658203 C12.99633286 110.88484894 11.91673798 110.52311584 10.8044281 110.15042114 C9.98209183 109.87390717 9.15975555 109.59739319 8.3125 109.3125 C8.31107498 108.63233826 8.30964996 107.95217651 8.30818176 107.25140381 C8.2885104 100.17842166 8.23429119 93.10630549 8.15991211 86.03369141 C8.13670088 83.39345511 8.12232913 80.7531258 8.11694336 78.11279297 C8.10767726 74.31939522 8.06673348 70.52746674 8.01953125 66.734375 C8.02543022 64.96075592 8.02543022 64.96075592 8.03144836 63.15130615 C8.0633383 56.81869821 8.0633383 56.81869821 5.00244141 51.53149414 C-1.29222836 48.6789541 -8.56073532 52.04659181 -14.75 54.125 C-20.53238816 56.01212048 -26.29639951 57.79654906 -32.1875 59.3125 C-37.92161857 60.7954617 -43.54952584 62.49935264 -49.1875 64.3125 C-55.9143388 66.47257971 -62.65654826 68.41327199 -69.49609375 70.19140625 C-83.14639438 73.79070562 -96.65789825 77.93880295 -110.09667969 82.25341797 C-115.95049946 84.11827412 -121.85211756 85.70908767 -127.80078125 87.24609375 C-133.20163932 88.68604106 -138.5062406 90.4428966 -143.82080078 92.16967773 C-149.23917623 93.9131595 -154.64172328 95.32575773 -160.2421875 96.37890625 C-163.82536736 97.7469254 -165.33141488 99.25196011 -167.6875 102.3125 C-168.43600884 105.83221314 -168.37783177 109.29822914 -168.34692383 112.88598633 C-168.35740753 113.94985565 -168.36789124 115.01372498 -168.37869263 116.10983276 C-168.40746373 119.62169484 -168.40114825 123.13257232 -168.39453125 126.64453125 C-168.40764494 129.0812046 -168.42294814 131.51786707 -168.44035339 133.95451355 C-168.48025416 140.36442788 -168.49039719 146.77405816 -168.49438477 153.18408203 C-168.50370651 159.72632492 -168.54111413 166.26840023 -168.57617188 172.81054688 C-168.64079964 185.6445163 -168.67495107 198.47837941 -168.6875 211.3125 C-170.88027218 212.41687629 -173.07391308 213.51946742 -175.26806641 214.62109375 C-175.87957047 214.92930054 -176.49107452 215.23750732 -177.12110901 215.55505371 C-183.34558893 218.6769275 -189.68719647 221.51306556 -196.0625 224.3125 C-197.81252319 225.08787109 -197.81252319 225.08787109 -199.59790039 225.87890625 C-204.66660849 228.12120633 -209.74033225 230.3469626 -214.84765625 232.5 C-215.58516113 232.81324219 -216.32266602 233.12648437 -217.08251953 233.44921875 C-218.96675122 234.24561407 -220.8562016 235.02963205 -222.74609375 235.8125 C-225.80775225 237.37382386 -227.50521275 238.67653384 -229.6875 241.3125 C-230.28795472 243.79477377 -230.28795472 243.79477377 -230.20648193 246.53900146 C-230.22039474 247.59626938 -230.23430756 248.65353729 -230.24864197 249.74284363 C-230.2436116 250.89730484 -230.23858124 252.05176605 -230.23339844 253.24121094 C-230.24373611 254.46099136 -230.25407379 255.68077179 -230.26472473 256.93751526 C-230.28916131 260.27834838 -230.29598941 263.61834824 -230.29500484 266.9592123 C-230.29813373 270.45199819 -230.32375133 273.9446173 -230.34698486 277.43731689 C-230.38755051 284.04934256 -230.40788682 290.6612696 -230.42095876 297.27340055 C-230.43682696 304.8018545 -230.47524174 312.33014056 -230.51555204 319.85849714 C-230.59795863 335.34311486 -230.6520459 350.8276993 -230.6875 366.3125 C-234.71591935 364.29829032 -235.78565766 358.25709607 -237.375 354.25 C-238.04329834 352.56644409 -238.04329834 352.56644409 -238.72509766 350.84887695 C-244.4076531 336.23556912 -248.83112647 321.29423177 -252 305.9375 C-252.14743652 305.22682373 -252.29487305 304.51614746 -252.44677734 303.78393555 C-255.43213787 288.14141634 -256.0623098 272.50580394 -256 256.625 C-255.99817719 255.65760895 -255.99635437 254.6902179 -255.99447632 253.69351196 C-255.94904826 239.36059023 -255.44016072 225.41476083 -252.6875 211.3125 C-252.44604248 209.96696045 -252.44604248 209.96696045 -252.19970703 208.59423828 C-241.37712011 148.78411096 -207.31935543 91.27004171 -158.6875 54.3125 C-158.14722168 53.89581055 -157.60694336 53.47912109 -157.05029297 53.04980469 C-147.0552884 45.3665127 -136.59540964 38.62407032 -125.6875 32.3125 C-125.01025879 31.91820801 -124.33301758 31.52391602 -123.63525391 31.11767578 C-100.7166244 17.93538827 -75.14177437 9.32989082 -49.3125 4 C-48.60182373 3.85256348 -47.89114746 3.70512695 -47.15893555 3.55322266 C-31.51641634 0.56786213 -15.88080394 -0.0623098 0 0 Z " fill="#FCBD5D" transform="translate(255.6875,-0.3125)"/>
<path d="M0 0 C11.2490173 2.24980346 11.2490173 2.24980346 15.62890625 3.55078125 C17.07330078 3.97617188 17.07330078 3.97617188 18.546875 4.41015625 C20.03960937 4.85681641 20.03960937 4.85681641 21.5625 5.3125 C22.61824219 5.62445313 23.67398437 5.93640625 24.76171875 6.2578125 C26.87699675 6.88313191 28.99175733 7.51020469 31.10595703 8.13916016 C34.90143202 9.26813306 38.70060768 10.3843017 42.5 11.5 C43.15556885 11.69311768 43.8111377 11.88623535 44.48657227 12.08520508 C50.65425729 13.90200256 56.82705746 15.70115996 63 17.5 C70.49907879 19.68528572 77.99585683 21.87795388 85.48828125 24.0859375 C92.69139092 26.20692964 99.90063268 28.30687174 107.11035156 30.40527344 C111.70698989 31.74394355 116.30231492 33.08615129 120.890625 34.453125 C121.63441406 34.67419922 122.37820313 34.89527344 123.14453125 35.12304688 C125.08133946 35.69977734 127.01727487 36.27943677 128.953125 36.859375 C134.2701248 38.35798884 139.64077878 39.6601947 145 41 C145 149.24 145 257.48 145 369 C97.15 369 49.3 369 0 369 C0 247.23 0 125.46 0 0 Z " fill="#CFD0D0" transform="translate(264,127)"/>
<path d="M0 0 C0 88.44 0 176.88 0 268 C-15.18 268 -30.36 268 -46 268 C-46 186.16 -46 104.32 -46 20 C-1 0 -1 0 0 0 Z " fill="#FDFDFD" transform="translate(87,228)"/>
<path d="M0 0 C26.84514638 11.67180277 26.84514638 11.67180277 35.375 15.5625 C36.78072266 16.19768555 36.78072266 16.19768555 38.21484375 16.84570312 C39.10042969 17.24853516 39.98601562 17.65136719 40.8984375 18.06640625 C41.66849121 18.41646729 42.43854492 18.76652832 43.23193359 19.12719727 C45 20 45 20 46 21 C46.09808162 24.1728935 46.12990152 27.32403901 46.12025452 30.49732971 C46.12110894 31.50682157 46.12196337 32.51631343 46.12284368 33.55639595 C46.12450153 36.96673273 46.11897215 40.3770212 46.11352539 43.78735352 C46.11324356 46.2209676 46.11340117 48.65458177 46.1139679 51.0881958 C46.11419622 56.34184462 46.11134484 61.59547816 46.10573006 66.849123 C46.0976172 74.44509291 46.09500006 82.04105682 46.09374207 89.63703059 C46.09155121 101.95976533 46.08489021 114.28249346 46.07543945 126.60522461 C46.06626621 138.57853156 46.05918495 150.55183673 46.05493164 162.52514648 C46.05466892 163.26267167 46.05440619 164.00019685 46.05413551 164.76007129 C46.05283051 168.45986624 46.05156679 172.15966121 46.05032361 175.85945618 C46.03994994 206.57297656 46.02151108 237.28648482 46 268 C30.82 268 15.64 268 0 268 C0 179.56 0 91.12 0 0 Z " fill="#FDFDFD" transform="translate(425,228)"/>
<path d="M0 0 C20.46 0 40.92 0 62 0 C62 20.46 62 40.92 62 62 C41.54 62 21.08 62 0 62 C0 41.54 0 21.08 0 0 Z " fill="#E1E6E9" transform="translate(144,434)"/>
<path d="M0 0 C14.85 0 29.7 0 45 0 C45 16.17 45 32.34 45 49 C30.15 49 15.3 49 0 49 C0 32.83 0 16.66 0 0 Z " fill="#FDFDFD" transform="translate(345,427)"/>
<path d="M0 0 C14.85 0 29.7 0 45 0 C45 16.17 45 32.34 45 49 C30.15 49 15.3 49 0 49 C0 32.83 0 16.66 0 0 Z " fill="#FDFDFD" transform="translate(282,427)"/>
<path d="M0 0 C14.85 0 29.7 0 45 0 C45 16.17 45 32.34 45 49 C30.15 49 15.3 49 0 49 C0 32.83 0 16.66 0 0 Z " fill="#FDFDFD" transform="translate(345,278)"/>
<path d="M0 0 C14.85 0 29.7 0 45 0 C45 16.17 45 32.34 45 49 C30.15 49 15.3 49 0 49 C0 32.83 0 16.66 0 0 Z " fill="#FDFDFD" transform="translate(282,278)"/>
<path d="M0 0 C14.85 0 29.7 0 45 0 C45 16.17 45 32.34 45 49 C30.15 49 15.3 49 0 49 C0 32.83 0 16.66 0 0 Z " fill="#FDFDFD" transform="translate(345,204)"/>
<path d="M0 0 C14.85 0 29.7 0 45 0 C45 16.17 45 32.34 45 49 C30.15 49 15.3 49 0 49 C0 32.83 0 16.66 0 0 Z " fill="#F8FCFD" transform="translate(185,130)"/>
<path d="M0 0 C14.85 0 29.7 0 45 0 C45 15.84 45 31.68 45 48 C30.15 48 15.3 48 0 48 C0 32.16 0 16.32 0 0 Z " fill="#FEFEFE" transform="translate(282,353)"/>
<path d="M0 0 C14.85 0 29.7 0 45 0 C45 15.84 45 31.68 45 48 C30.15 48 15.3 48 0 48 C0 32.16 0 16.32 0 0 Z " fill="#FCFDFE" transform="translate(185,353)"/>
<path d="M0 0 C14.85 0 29.7 0 45 0 C45 15.84 45 31.68 45 48 C30.15 48 15.3 48 0 48 C0 32.16 0 16.32 0 0 Z " fill="#FCFDFE" transform="translate(185,279)"/>
<path d="M0 0 C14.85 0 29.7 0 45 0 C45 15.84 45 31.68 45 48 C30.15 48 15.3 48 0 48 C0 32.16 0 16.32 0 0 Z " fill="#FEFEFE" transform="translate(282,205)"/>
<path d="M0 0 C14.85 0 29.7 0 45 0 C45 15.84 45 31.68 45 48 C30.15 48 15.3 48 0 48 C0 32.16 0 16.32 0 0 Z " fill="#FCFDFE" transform="translate(185,205)"/>
<path d="M0 0 C14.52 0 29.04 0 44 0 C44 15.84 44 31.68 44 48 C29.48 48 14.96 48 0 48 C0 32.16 0 16.32 0 0 Z " fill="#FEFEFE" transform="translate(122,353)"/>
<path d="M0 0 C14.52 0 29.04 0 44 0 C44 15.84 44 31.68 44 48 C29.48 48 14.96 48 0 48 C0 32.16 0 16.32 0 0 Z " fill="#FEFEFE" transform="translate(122,279)"/>
<path d="M0 0 C14.52 0 29.04 0 44 0 C44 15.84 44 31.68 44 48 C29.48 48 14.96 48 0 48 C0 32.16 0 16.32 0 0 Z " fill="#FEFEFE" transform="translate(122,205)"/>
<path d="M0 0 C14.52 0 29.04 0 44 0 C44 15.51 44 31.02 44 47 C29.48 47 14.96 47 0 47 C0 31.49 0 15.98 0 0 Z " fill="#FFFFFF" transform="translate(346,354)"/>
<path d="M0 0 C14.52 0 29.04 0 44 0 C44 15.51 44 31.02 44 47 C29.48 47 14.96 47 0 47 C0 31.49 0 15.98 0 0 Z " fill="#FFFFFF" transform="translate(122,131)"/>
<path d="M0 0 C4.62 0 9.24 0 14 0 C14 5.28 14 10.56 14 16 C9.38 16 4.76 16 0 16 C0 10.72 0 5.44 0 0 Z " fill="#193651" transform="translate(441,460)"/>
<path d="M0 0 C4.62 0 9.24 0 14 0 C14 5.28 14 10.56 14 16 C9.38 16 4.76 16 0 16 C0 10.72 0 5.44 0 0 Z " fill="#193651" transform="translate(57,460)"/>
<path d="M0 0 C4.62 0 9.24 0 14 0 C14 5.28 14 10.56 14 16 C9.38 16 4.76 16 0 16 C0 10.72 0 5.44 0 0 Z " fill="#1B3853" transform="translate(441,419)"/>
<path d="M0 0 C4.62 0 9.24 0 14 0 C14 5.28 14 10.56 14 16 C9.38 16 4.76 16 0 16 C0 10.72 0 5.44 0 0 Z " fill="#1B3853" transform="translate(57,419)"/>
<path d="M0 0 C4.62 0 9.24 0 14 0 C14 5.28 14 10.56 14 16 C9.38 16 4.76 16 0 16 C0 10.72 0 5.44 0 0 Z " fill="#1B3853" transform="translate(441,379)"/>
<path d="M0 0 C4.62 0 9.24 0 14 0 C14 5.28 14 10.56 14 16 C9.38 16 4.76 16 0 16 C0 10.72 0 5.44 0 0 Z " fill="#1B3853" transform="translate(57,379)"/>
<path d="M0 0 C4.62 0 9.24 0 14 0 C14 5.28 14 10.56 14 16 C9.38 16 4.76 16 0 16 C0 10.72 0 5.44 0 0 Z " fill="#1B3853" transform="translate(441,339)"/>
<path d="M0 0 C4.62 0 9.24 0 14 0 C14 5.28 14 10.56 14 16 C9.38 16 4.76 16 0 16 C0 10.72 0 5.44 0 0 Z " fill="#1B3853" transform="translate(57,339)"/>
<path d="M0 0 C4.62 0 9.24 0 14 0 C14 5.28 14 10.56 14 16 C9.38 16 4.76 16 0 16 C0 10.72 0 5.44 0 0 Z " fill="#1E3B55" transform="translate(441,298)"/>
<path d="M0 0 C4.62 0 9.24 0 14 0 C14 5.28 14 10.56 14 16 C9.38 16 4.76 16 0 16 C0 10.72 0 5.44 0 0 Z " fill="#1E3B55" transform="translate(57,298)"/>
<path d="M0 0 C4.62 0 9.24 0 14 0 C14 5.28 14 10.56 14 16 C9.38 16 4.76 16 0 16 C0 10.72 0 5.44 0 0 Z " fill="#1E3B55" transform="translate(441,258)"/>
<path d="M0 0 C4.62 0 9.24 0 14 0 C14 5.28 14 10.56 14 16 C9.38 16 4.76 16 0 16 C0 10.72 0 5.44 0 0 Z " fill="#1E3B55" transform="translate(57,258)"/>
</svg>
